<?xml version="1.0" encoding="utf-8"?>
<!-- Svg Vector Icons : http://www.onlinewebfonts.com/icon -->
<!DOCTYPE svg PUBLIC "-//W3C//DTD SVG 1.1//EN" "http://www.w3.org/Graphics/SVG/1.1/DTD/svg11.dtd">
<svg version="1.1" xmlns="http://www.w3.org/2000/svg" xmlns:xlink="http://www.w3.org/1999/xlink" x="0px" y="0px" viewBox="0 0 256 256" enable-background="new 0 0 256 256" xml:space="preserve">
<metadata> Svg Vector Icons : http://www.onlinewebfonts.com/icon </metadata>
<g><g><g><path fill="#FFFFFF" d="M83.7,11.4l-1.4,1.4v22c0,27.3-0.9,25,9.7,25h7.3l-0.2,3.2c-0.2,3.1-0.2,3.2-2.1,3.8c-4.5,1.5-4.1,7.5,0.6,8.5l1.6,0.3l-0.2,6.4c-0.2,3.5-0.4,14.5-0.6,24.5c-0.4,26-1.7,46.6-4,62.7c-1,7.3-3.8,20.7-5.2,25.3c-0.9,3-1.2,3.4-3.1,4.1c-4.3,1.5-6.6,5.3-6.6,10.9v3.5H77c-6.2,0-11.5,3.3-14.2,8.6c-1.2,2.5-1.5,3.7-1.5,8c0,6,1.4,9.7,4.7,12.6c4.7,4.2-0.5,3.8,60.7,4c61.1,0.2,58.1,0.3,62.6-3.6c1.2-1.1,2.9-3.3,3.7-4.9c1.2-2.5,1.5-3.7,1.5-8.1s-0.2-5.6-1.5-8.1c-2.7-5.3-8-8.6-14.2-8.6h-2.4v-4.1c0-2.9-0.3-4.6-1.1-6c-1.2-2.3-4.2-4.5-6-4.5c-0.7,0-1.6-0.5-1.9-1.1c-1.5-2.9-5.4-21.6-6.8-33c-2-16.8-3.6-51.6-3.3-74.9c0.2-13.7,0.2-13.8,1.4-14c2.6-0.4,4.2-3.8,2.9-6.3c-0.4-0.8-1.6-1.7-2.7-2c-1.9-0.6-2-0.7-2-3.7v-3l7.2-0.2c10.4-0.2,9.5,2.1,9.5-25.1v-22l-1.4-1.4c-1.4-1.4-1.6-1.4-10.2-1.4h-8.9l-1.6,1.6c-1.5,1.5-1.6,2-1.6,5.9v4.3h-4.5H141v-4.5c0-4.1-0.2-4.7-1.4-5.9c-1.4-1.4-1.5-1.4-11.5-1.4c-9.9,0-10.2,0.1-11.7,1.4c-1.4,1.2-1.6,1.8-1.8,5.9l-0.2,4.6h-3.6h-3.6v-4.3c0-4-0.1-4.4-1.6-5.9l-1.6-1.6h-9.4C85.2,10,85,10,83.7,11.4z M98.1,23.5c0,4.1,0.2,4.7,1.4,5.9c1.4,1.4,1.5,1.4,11.2,1.4c9.1,0,9.9-0.1,11.3-1.2c1.4-1.1,1.5-1.5,1.5-5.9V19h4.2h4.2v4.5c0,4.1,0.2,4.7,1.4,5.9c1.4,1.4,1.5,1.4,12,1.4c9.9,0,10.8-0.1,12.2-1.2c1.4-1.1,1.5-1.5,1.5-5.9V19h2.8h2.8v15.8v15.8H128H91.3V34.8V19h3.4h3.4V23.5z M148,62.7c0.2,1.4,0.2,2.8,0,3.1c-0.2,0.5-6.7,0.6-20.1,0.6h-19.7v-3.1v-3.1h19.7h19.8L148,62.7z M148.3,88c0.1,44.4,3.3,82.2,8.8,103.1c0.8,2.9,1.4,5.5,1.4,5.8c0,0.3-12.6,0.5-30.7,0.5H97.1l0.8-2.7c0.5-1.5,1.6-6.2,2.5-10.6c4.5-21.6,6.5-46,7.2-86.9l0.3-21.9h20.3h20.2V88L148.3,88z M167.5,209.6v2.5H128H88.5v-2.5v-2.5H128h39.5V209.6z M184.2,223.6c1.1,1.4,1.4,2.2,1.4,5.6c0,3.7-0.1,4.1-1.9,5.9l-1.9,1.9h-54h-54l-1.6-1.6c-1.5-1.5-1.6-2-1.6-5.8c0-4.5,0.8-6.3,3-7.2c0.6-0.3,25.5-0.5,55.3-0.4l54.2,0.1L184.2,223.6z"/></g></g></g>
</svg>