<?xml version="1.0" encoding="utf-8"?>
<!-- Svg Vector Icons : http://www.onlinewebfonts.com/icon -->
<!DOCTYPE svg PUBLIC "-//W3C//DTD SVG 1.1//EN" "http://www.w3.org/Graphics/SVG/1.1/DTD/svg11.dtd">
<svg version="1.1" xmlns="http://www.w3.org/2000/svg" xmlns:xlink="http://www.w3.org/1999/xlink" x="0px" y="0px" viewBox="0 0 256 256" enable-background="new 0 0 256 256" xml:space="preserve">
<metadata> Svg Vector Icons : http://www.onlinewebfonts.com/icon </metadata>
<g><g><g><path fill="#000000" d="M123.5,10.5c-3.1,1-4.3,1.8-7,4.2c-6.2,5.7-7,14.2-2,21.8l1.8,2.7L104,55.5C97.2,64.4,91,73,90.3,74.4c-1.9,3.8-2.7,9-2,12.9c0.3,1.7,2.4,7.3,4.6,12.4L97,109l-7.2,46.2c-4,25.4-7.3,46.7-7.4,47.3c-0.3,1.2-0.4,1.2-7.7,1.2c-7.1,0-7.4,0.1-8.6,1.3l-1.3,1.3v18.5v18.5l1.3,1.3l1.3,1.3H128h60.7l1.3-1.3l1.3-1.3v-18.5v-18.5l-1.3-1.3c-1.2-1.3-1.5-1.3-8.6-1.3c-7.3,0-7.4,0-7.7-1.2c-0.1-0.6-3.5-21.9-7.4-47.3l-7.2-46.2l4.1-9.4c2.4-5.6,4.3-10.7,4.6-12.7c0.7-4.1-0.1-8.9-2-12.7c-0.7-1.4-6.9-10-13.7-18.9l-12.3-16.2l1.8-2.7c2.3-3.5,3.6-8.6,3.2-12.1c-0.7-5.4-5-10.8-10.2-13.1C131.4,10,126.3,9.6,123.5,10.5z M132.2,19.2c2.2,1.2,4.2,4.7,4.2,7.5c0,2.1-1.2,5.2-2,5.2c-0.3,0-1.2-1.1-2.1-2.4c-2.7-3.8-5.8-3.9-8.6,0c-1.8,2.6-2.5,2.7-3.5,0.7c-1.7-3.4,0.1-9.2,3.5-11C126.2,18,129.8,18,132.2,19.2z M137.1,49.9l8.8,11.6l-4.7,9.5c-2.6,5.2-4.7,10.1-4.7,10.8c0,2.6,3.3,4.5,6,3.5c1.1-0.4,2.2-2.1,5.2-8.2c2.1-4.2,4-7.6,4.1-7.6c0.5,0.1,5.7,7.1,6.9,9.4c1.9,3.7,1.4,6.9-2.6,16.1l-3.3,7.7H128h-24.6l-3.5-8.1c-4.1-9.3-4.4-12-2.3-15.9c1.3-2.4,29.9-40.3,30.4-40.3C128.2,38.3,132.3,43.5,137.1,49.9z M150.7,111.1c0,0.1,3.3,20.9,7.2,46.3l7.3,46.1l-18.6,0.2c-10.2,0.1-27,0.1-37.2,0l-18.6-0.2l7.3-46.1c4-25.4,7.2-46.2,7.2-46.3c0.1-0.1,10.3-0.1,22.7-0.1C140.5,111,150.7,111.1,150.7,111.1z M182.8,224.9v12.7H128H73.2v-12.7v-12.7H128h54.8V224.9z"/></g></g></g>
</svg>