<?xml version="1.0" encoding="utf-8"?>
<!-- Svg Vector Icons : http://www.onlinewebfonts.com/icon -->
<!DOCTYPE svg PUBLIC "-//W3C//DTD SVG 1.1//EN" "http://www.w3.org/Graphics/SVG/1.1/DTD/svg11.dtd">
<svg version="1.1" xmlns="http://www.w3.org/2000/svg" xmlns:xlink="http://www.w3.org/1999/xlink" x="0px" y="0px" viewBox="0 0 256 256" enable-background="new 0 0 256 256" xml:space="preserve">
<metadata> Svg Vector Icons : http://www.onlinewebfonts.com/icon </metadata>
<g><g><g><path fill="#000000" d="M67.7,10.6c-2.1,1.2-2.1,0.6-2.1,28v26.1l5.7,8.5l5.7,8.6l-8.7,58.5c-4.8,32.2-8.7,58.6-8.7,58.7c0,0.1-2.8,0.1-6.2,0.1c-5.8,0-6.3,0.1-7.4,1.1c-0.8,0.7-2.1,3.9-4.8,12.3c-2.1,6.2-3.7,11.9-3.7,12.5c0,1.4,1.4,3.1,2.9,3.4c0.6,0.1,20.5,4.2,44.3,8.9L128,246l44-8.5c24.3-4.7,44.5-8.8,45.1-9.2c0.6-0.4,1.2-1.2,1.3-1.9c0.4-1.7-7.1-24.9-8.4-26.4c-1-0.9-1.4-1-6.8-1c-4.2,0-5.9-0.1-6-0.6c-0.1-0.3-1.3-7.9-2.7-16.9c-1.3-9-5.3-35.1-8.8-58.1l-6.4-41.7l5.8-8.5l5.9-8.5V38.5c0-25.5,0-26.2-0.9-27.1c-0.5-0.5-1.4-1-1.9-1.2c-0.6-0.1-6.7-0.2-13.6-0.1l-12.6,0.1l-0.9,1.1c-0.8,0.9-0.9,1.8-0.9,7.7v6.6H156h-4.2v-6.5v-6.5l-1.3-1.3l-1.3-1.3h-20.8h-20.8l-1.3,1.3l-1.3,1.3v6.5v6.5h-3.9H97v-5.8c0-6.5-0.6-8.7-2.5-9.5C92.7,9.8,68.9,9.9,67.7,10.6z M89.1,24.5c0,6.5,0,6.8,1.2,7.8c1.1,1.2,1.2,1.2,10.3,1.2c9.1,0,9.2,0,10.5-1.1c1.3-1.1,1.3-1.1,1.4-7.8l0.1-6.7h15.6h15.6l0.1,6.7c0.1,6.7,0.1,6.7,1.4,7.8c1.3,1.1,1.4,1.1,10.5,1.1c9.2,0,9.2,0,10.3-1.2c1.1-1.1,1.2-1.3,1.2-7.8v-6.7h8.1h8.1v22v22l-6,8.7c-4.3,6.3-6,9.1-6,10.1c0,0.7,4.1,28.7,9.3,62.3c7.1,46.4,9.5,61.2,10.1,62.1c0.8,1.1,1.1,1.2,7.2,1.4l6.4,0.2l2.6,7.8l2.6,7.8l-2.6,0.6c-1.4,0.3-19.9,3.9-40.9,8l-38.3,7.3l-35.2-7.1c-44.9-9-46.1-9.3-46.3-9.5c-0.1-0.1,0.9-3.5,2.2-7.6l2.5-7.3l7-0.2c7.7-0.3,8-0.3,8.5-3.4c0.1-0.8,3.5-23.1,7.4-49.7c4-26.5,8-53.7,9-60.5c1.3-8.4,1.7-12.7,1.4-13.4c-0.2-0.6-2.9-4.7-5.9-9.3L73,61.9v-22v-22h8.1h8.1V24.5L89.1,24.5z"/></g></g></g>
</svg>