<?xml version="1.0" encoding="utf-8"?>
<!-- Svg Vector Icons : http://www.onlinewebfonts.com/icon -->
<!DOCTYPE svg PUBLIC "-//W3C//DTD SVG 1.1//EN" "http://www.w3.org/Graphics/SVG/1.1/DTD/svg11.dtd">
<svg version="1.1" xmlns="http://www.w3.org/2000/svg" xmlns:xlink="http://www.w3.org/1999/xlink" x="0px" y="0px" viewBox="0 0 256 256" enable-background="new 0 0 256 256" xml:space="preserve">
<metadata> Svg Vector Icons : http://www.onlinewebfonts.com/icon </metadata>
<g><g><g><path fill="#000000" d="M123,10.6c-5.9,2.2-9.7,6.1-11.3,11.6c-1.2,3.9-1.2,6.8-0.1,10.5c0.7,2.5,0.7,2.9-0.2,3.8c-1.4,1.3-2.2,1.2-6.8-0.3c-4.7-1.6-8.2-1.2-11.6,1.2c-3.1,2.2-4.5,5.2-4.5,9.2c0,4.1,1.4,6.9,6.3,12.3c7.3,8.1,13.3,22.6,13.3,32v2.3l-3.9,0.3c-7,0.6-11.2,4.6-11.9,11.1c-0.5,4.6,1.7,9.5,5.2,11.7c2.5,1.7,8.7,3.1,10.8,2.6c1.2-0.3,1.2-0.1,0.9,6.9c-0.4,8.6-2.8,18.7-8.1,33.5c-5.4,15.2-5.9,16.1-8.9,16.9c-3.1,1-6.4,3.8-8.5,7.4c-2.4,4.1-2.7,11-0.6,15c1.4,2.8,1.4,3,0.4,3.9c-0.6,0.5-1.8,2.4-2.8,4.2c-1.4,2.6-1.8,3.9-1.8,7.2c0.1,4.3,1.7,8.9,4.1,11.5l1.3,1.4l-1.6,2.5c-2.3,3.4-3.4,6.5-3.9,10.1c-0.3,2.6-0.2,3.4,1,4.8l1.3,1.7H128h46.7l1.2-1.6c2.2-2.8,1.2-8.9-2.4-14.6l-1.8-2.9l1.8-2.6c2.5-3.4,3.9-8.5,3.4-12.1c-0.4-2.8-2.9-8.1-4.7-9.7c-1-0.9-1-1.1,0.4-3.8c4.1-8-0.3-19.1-8.7-22.3c-2.9-1.1-3.1-1.4-5-6c-3.2-7.5-7.4-20-9.8-29.2c-1.7-6.3-2.2-10-2.5-15.4l-0.4-7.2l4.6-0.2c3.8-0.2,5-0.6,7.2-2c5.7-3.8,7.2-12.4,3.3-17.9c-2.4-3.4-5-4.7-9.7-5.2l-4-0.3v-2.1c0-3.2,1.8-11,3.7-16.3c2.2-6.1,5.1-10.8,9.8-16.2c4.9-5.5,6.2-8,6.2-12.1c0-4.1-1.4-7-4.5-9.2c-3.4-2.5-6.8-2.8-11.6-1.2c-4.6,1.5-5.4,1.6-6.8,0.3c-0.9-0.9-0.9-1.2-0.2-3.8c3.3-10.9-4.2-22-15.3-22.7C126.7,9.9,124.4,10.1,123,10.6z M131.1,20.5c0.8,0.4,2.2,1.7,2.9,2.8c3.4,5.1,0.1,11.7-6,11.7c-4.2,0-7.4-3.3-7.4-7.5c0-2.8,1.2-4.8,3.6-6.5C126.6,19.5,128.8,19.3,131.1,20.5z M121.3,44.3c3.6,1.6,10.3,1.7,13.8,0.1c2.5-1.1,2.5-1.1,4.3,0.3c3.3,2.5,6.8,3,11.4,1.8c2.2-0.6,4.7-1.1,5.5-1.2c2.4-0.1,1.7,2.3-1.8,6.3c-9.3,10.8-14.5,22.6-16.1,36.7c-0.8,7.4-0.4,12.1,1.4,13.6c1,0.9,2.2,1.1,7,0.9c6-0.2,7.7,0.4,7.7,2.9c0,2.5-2,3.2-8,3c-5.3-0.2-5.7-0.1-6.8,1.2c-3.9,4.9-3.4,19.4,1.4,36.5c3.7,13.3,11.5,34.4,13.5,36.5c0.6,0.6,2.5,1.4,4.1,1.7c6.5,1.2,8.9,8.9,3.4,10.7c-2.5,0.9-3.8,2.4-3.8,4.9c0,2.2,0.6,3.1,4.1,5.8c3.1,2.4,5.1,5.4,5.1,7.9c0,2.9-2.4,5.9-5.4,6.9c-4.9,1.5-5.6,6.1-1.4,9.1c2.3,1.7,5.5,5.1,5.6,5.8c0,0.3-17,0.5-37.8,0.5c-28.3,0-37.8-0.2-37.8-0.7c0-0.4,1.8-2.4,4-4.5c2.8-2.7,4-4.3,4-5.4c0-2-2.2-4.8-3.7-4.8c-1.8,0-4.9-3-5.6-5.5c-0.9-2.9,0.1-5,3.8-8.4c5-4.7,5.5-5.1,5.5-6.3c0-2.9-2.5-5.6-5.2-5.6c-1.7,0-2.2-4.5-0.7-7.3c1-1.9,3.3-3.1,6-3.1c1.2,0,2.3-0.6,3.1-1.4c2.7-3,10.8-25,14.4-38.9c4.5-17.6,4.4-31.7-0.4-34.9c-1.1-0.8-2.3-0.9-6.1-0.6c-5.7,0.4-7.4-0.2-7.4-2.9c0-2.6,1.7-3.3,7.2-2.8c8,0.7,9.2-0.9,8.6-11.5c-0.8-15-6.4-28.8-16.2-39.8c-2.2-2.5-3.3-4.2-3.3-5.4c0-1.7-0.2-1.7,7.4,0.1c4.7,1.2,8.1,0.6,10.8-1.8c1-0.8,1.8-1.5,1.8-1.5C118.6,43,119.8,43.6,121.3,44.3z"/></g></g></g>
</svg>