<?xml version="1.0" encoding="utf-8"?>
<!-- Svg Vector Icons : http://www.onlinewebfonts.com/icon -->
<!DOCTYPE svg PUBLIC "-//W3C//DTD SVG 1.1//EN" "http://www.w3.org/Graphics/SVG/1.1/DTD/svg11.dtd">
<svg version="1.1" xmlns="http://www.w3.org/2000/svg" xmlns:xlink="http://www.w3.org/1999/xlink" x="0px" y="0px" viewBox="0 0 256 256" enable-background="new 0 0 256 256" xml:space="preserve">
<metadata> Svg Vector Icons : http://www.onlinewebfonts.com/icon </metadata>
<g><g><g><path fill="#000000" d="M123.6,10.4c-0.6,0.3-1.2,0.9-1.3,1.4c-0.1,0.5-0.3,4.9-0.4,9.9l0,9l-1.2,0.7c-0.6,0.4-4.9,3.6-9.5,7c-9,6.7-12.2,9.7-15.5,14.3c-4,5.5-22,24.7-31.2,33.2c-5.6,5.2-8.4,8.4-9.6,11.3c-1.2,2.9-0.5,10.8,1.7,17.6c2.1,6.4,9.5,10.5,18.9,10.5c7.1,0,12.1-1.8,23.1-8.3c2.4-1.4,4.9-2.7,5.5-2.9c0.6-0.1,3.7,0,7,0.3c7.1,0.7,10.9,0.4,14.8-1.2c1.6-0.6,3-1.2,3.2-1.2c0.6,0-1.8,7.1-4.1,11.8c-3.2,6.5-6.2,10.5-15.3,19.9c-10.8,11.3-14.3,15.9-18.4,24.3c-2,4.2-5.4,13.6-6.9,19.2l-0.8,3.1l-2.2,0.5c-6.3,1.5-10.7,8.6-9.2,14.9c0.7,3.2,2.8,6.4,5.1,8c1,0.7,1.8,1.5,1.9,1.7c0,0.2-1.7,4.8-3.7,10.3c-2.3,6-3.7,10.5-3.7,11.6c0,2,1.3,5,2.7,6.2c2.4,2.2,1.1,2.1,60.2,2.2c49.3,0,55.9-0.1,57.4-0.7c3.4-1.5,5.3-4.1,5.3-7.6c0-1.6-1-4.9-3.7-12.2c-3.7-9.8-3.9-10.8-2.3-10.8c0.8,0,3.9-3.7,4.8-5.7c3.4-7.3-1.1-16.3-8.9-18c-1.4-0.3-1.4-0.4-1.8-3.4c-0.6-7.1-0.1-17.2,1.4-26.6c1.2-7.3,3.2-15.2,7.1-27.9c6.6-21.3,7.6-26.7,7.6-40.1c0-7.7-0.2-10.5-1-14.9c-2.5-13.7-7.8-24.3-16.5-32.8c-9.8-9.6-23.1-15.8-37.7-17.5c-2.4-0.3-2.7-0.5-3.4-1.8c-1.7-3.3-5.6-8.3-8.3-10.9C130,10.7,126.3,9.2,123.6,10.4z M136.4,29.3c1.3,2.3,2.7,4.4,3.1,4.6c0.4,0.2,2.6,0.6,4.9,0.9c12.5,1.6,22,5.4,30.5,12.1c13.5,10.7,20.3,28.2,19.4,49.3c-0.5,10.3-1.9,17.1-7.7,35.7c-6.9,22.1-9.2,36.1-8.6,51.7l0.2,7.1h-43.5H91.3l0.7-2.4c2.9-10,6.1-17.6,10.1-23.7c3.4-5.3,5.4-7.7,13.8-16.3c7.8-8.1,12-13.5,15.1-19.3c3.8-7.2,6.6-17.2,6.9-24.3c0.1-2.8,0-3.2-1-4c-1.8-1.4-3.5-1.1-6.2,1.1c-5.5,4.7-9.4,6.1-15.2,5.7c-12.7-1-12.4-1-15.7,0.6c-1.7,0.8-4.8,2.4-6.9,3.7c-10.1,6.1-16.3,7.5-23.7,5.3c-3.6-1.1-5-2.6-6-6.6c-0.5-1.9-1.1-5.2-1.2-7.2l-0.3-3.7L74,87c13.2-13.2,22.1-22.6,26.5-28.3c6.1-7.7,7-8.5,20.8-18.5c3.5-2.5,6.5-5,6.8-5.4c0.6-1.1,1.4-7.8,1.4-11.6l0-3l2.3,2.4C133,24,135.1,27,136.4,29.3z M187.1,198.7c2.5,1.3,3.5,4.8,2.1,7.6c-1.5,2.9,1.6,2.8-54.8,2.8H83l-1.4-1.2c-0.7-0.6-1.6-1.9-1.9-2.8c-0.7-2.1,0-4.4,1.9-6L83,198h51.4C179.4,198,186,198.1,187.1,198.7z M186.3,227c2.2,5.8,3.8,10.8,3.7,11.1c-0.3,0.9-110.2,0.9-110.6,0c-0.2-0.5,3-9.6,7.1-20.3l0.5-1.2h47.6h47.7L186.3,227z"/></g></g></g>
</svg>