<?xml version="1.0" encoding="utf-8"?>
<!-- Svg Vector Icons : http://www.onlinewebfonts.com/icon -->
<!DOCTYPE svg PUBLIC "-//W3C//DTD SVG 1.1//EN" "http://www.w3.org/Graphics/SVG/1.1/DTD/svg11.dtd">
<svg version="1.1" xmlns="http://www.w3.org/2000/svg" xmlns:xlink="http://www.w3.org/1999/xlink" x="0px" y="0px" viewBox="0 0 256 256" enable-background="new 0 0 256 256" xml:space="preserve">
<metadata> Svg Vector Icons : http://www.onlinewebfonts.com/icon </metadata>
<g><g><g><path fill="#000000" d="M116.3,10.8c-8.1,2.3-13.8,8-17.2,17.1L97.6,32l-6.2,1.8C79.9,37,71.3,41.7,64,48.5C55.9,56.2,51.1,65,48.3,77.3c-0.9,4.3-1.1,6-1.1,15.3c0,11.3,0.5,14.7,3,24.3c1.7,6.5,3.1,10.1,6.8,17.9c6.9,14.7,9.9,28.4,9.3,43.1c-0.1,4.1-0.7,8.7-1.3,11.9c-0.9,4.5-0.9,5.4-0.4,6.6c1.5,3.6,7.1,3.7,8.8,0.1c2.2-4.8,3.5-21.5,2.4-31.7c-1.3-11.7-4.5-23-10.2-35.1c-3.9-8.3-5.6-13.1-7.2-20.1c-4-17.9-1.9-34.2,5.8-46c6.9-10.4,18.9-18,34-21.4c7.7-1.8,7.6-1.7,9-7.3c1.6-6.2,4.3-10.4,8.3-13c1.2-0.7,2.3-1.3,2.5-1.3c0.2,0,0.4,8.2,0.4,18.1c0,20.2,0,20.4,3.1,21.6c2.1,0.9,4,0.5,5.5-1.3c1.1-1.3,1.2-1.6,1.2-8.3c0-8.1-0.5-7.6,5.8-5.7c5.2,1.5,11,4.2,14.7,6.9c5.8,4.1,8.7,8.6,10,15.7l0.6,2.7l17.4,14.1c9.6,7.7,17.9,14.7,18.3,15.4c0.7,1,0.8,2.3,0.8,5.7c0,3.9,0.1,4.7,1.4,7.2c2.7,5.4,2.5,8-1,11.6c-1.3,1.4-3.7,3.2-5.7,4.2c-2.8,1.5-3.8,1.8-6.1,1.8c-3.7,0-5.8-1.1-12-6.2c-8.1-6.7-12.6-8.5-20.7-8.5c-5.5,0-10.6,1.3-16,4.1l-3.9,2l-4.1-4c-8.1-8-12.8-15.1-13.4-20.5c-0.5-4-0.6-4.4-1.9-5.7c-1.8-1.8-4.8-1.8-6.7,0.1c-1.2,1.3-1.3,1.7-1.3,4.4c0,10.6,7.7,21.4,28.1,39.7c18,16.2,20.5,19.3,23.2,30.1c2,8,2.3,16.3,0.8,27.7c-0.3,2.3-0.2,2.5,1.3,4.1c1.9,1.9,4.3,2.2,6.4,0.7c1.7-1.3,2.1-3,2.8-10.7c1-11.7-1-24.8-5.1-33.5c-3.5-7.4-6.2-10.7-17.1-20.6l-5.2-4.7l1.5-0.9c5-3.1,13.1-3.6,17.9-1.2c1.3,0.6,4,2.6,6,4.4c7.7,6.8,11.8,9,17.2,9.6c3.5,0.4,8.1-0.7,12.5-3.1c11.5-6,16.6-17,12.4-26.7c-0.9-2.1-1.3-3.8-1.4-7.2c-0.2-4.6-1.1-7.2-3.1-10.1c-0.6-0.8-8.5-7.5-17.8-15l-16.8-13.6l-0.6-2.5c-1.1-4.6-4-9.8-7.7-13.5c-6.9-7.1-15.4-11.3-30-15l-1.6-0.4l-0.1-9.2c0-5.1-0.1-9.7-0.1-10.3c0-0.6-0.7-1.7-1.4-2.5c-1.3-1.3-1.6-1.3-4.5-1.3C120.5,10,117.9,10.4,116.3,10.8z"/><path fill="#000000" d="M130.6,68.9c-2.6,1.6-2.8,5.6-0.4,7.7c1.2,1,1.6,1.1,7.9,1.1h6.7l1.5-1.3c1.3-1.2,1.5-1.7,1.5-3.5s-0.2-2.4-1.5-3.5l-1.5-1.3h-6.4C133,67.9,131.9,68.1,130.6,68.9z"/><path fill="#000000" d="M73.8,207c-13.7,1.7-22,11-24,27c-0.8,6.4-0.5,9.5,1.1,10.9l1.3,1.1h61.6h61.6l1.3-1.5c1.3-1.5,1.3-1.5,1-7.1c-0.6-13.3-5.9-23.5-14.4-27.5c-6.4-3.2-4.4-3-47.4-3.1C94.4,206.7,75.5,206.9,73.8,207z M158.7,218.4c5.3,2.5,8.3,7.5,9,15.7l0.2,2.2h-54.3H59.4l0.3-2.9c0.6-6.4,3.8-12.4,7.8-14.5c3.9-2,4.1-2,47.3-1.9l41,0.1L158.7,218.4z"/></g></g></g>
</svg>