<?xml version="1.0" encoding="utf-8"?>
<!-- Svg Vector Icons : http://www.onlinewebfonts.com/icon -->
<!DOCTYPE svg PUBLIC "-//W3C//DTD SVG 1.1//EN" "http://www.w3.org/Graphics/SVG/1.1/DTD/svg11.dtd">
<svg version="1.1" xmlns="http://www.w3.org/2000/svg" xmlns:xlink="http://www.w3.org/1999/xlink" x="0px" y="0px" viewBox="0 0 256 256" enable-background="new 0 0 256 256" xml:space="preserve">
<metadata> Svg Vector Icons : http://www.onlinewebfonts.com/icon </metadata>
<g><g><g><path fill="#000000" d="M121.8,14.8v4.8h-5.1h-5.1v5.1v5.1h5.1h5.1l-0.2,6.6l-0.2,6.6l-13.7,2.7c-7.5,1.4-13.8,2.8-14,2.9c-0.2,0.2,1.1,5,2.8,10.7c2.9,9.4,3.2,10.8,3.2,15.7c0,5.3,0,5.3-1.7,6.3c-3,1.7-2.9,6,0.1,7.7l1.7,1l-0.3,21.2c-0.7,41-2.5,61.9-7.3,80.7l-1.8,7.1l-3.7,0.3c-6.4,0.6-9.5,4.1-9.5,11v3.4l-2.1,0.3c-2.7,0.5-6.9,3.1-8.9,5.7c-2.2,2.9-3,5.7-3.1,10c0,5.1,1.4,8.6,4.5,11.8c4.7,4.8,1.1,4.5,60.4,4.5c59.3,0,55.7,0.3,60.5-4.5c3.5-3.5,4.7-7.1,4.3-12.9c-0.2-2.4-0.7-5.1-1.2-6.1c-2.7-5.1-8-8.6-12.9-8.6h-2.6l-0.3-4.2c-0.5-7-3.8-10.4-10.2-10.5h-2.6l-1.8-7.2c-3.2-13-5-26.5-6.3-45c-0.6-8.9-1.7-41.8-1.7-51.4c0-5.4,0.1-5.7,1.4-6.4c3.1-1.6,3.3-6.1,0.3-7.8c-1.6-0.9-1.7-1.1-1.7-4.8c0-2.8,0.8-6.8,3.2-15.7c1.7-6.5,3-12,2.8-12.2c-0.2-0.2-5.2-1.3-11.2-2.5c-6-1.2-12.3-2.5-13.8-2.8l-3-0.6v-6.5v-6.4h5.1h5.1v-5.1v-5.1h-5.1h-5.1v-4.8V10h-4.8h-4.8L121.8,14.8L121.8,14.8z M138.1,53.2c5.9,1.2,10.3,2.4,10.3,2.7c0,0.3-0.6,2.9-1.3,5.7l-1.3,5.1l-18.6,0.2L108.5,67l-1.8-5.8c-1-3.2-1.7-5.8-1.6-5.9c0.3-0.2,20.6-4.1,21.6-4.1C127.2,51.2,132.4,52.1,138.1,53.2z M144.4,78.9v1.7h-17.8h-17.8v-1.7v-1.7h17.8h17.8V78.9z M144.6,95.9c0.2,3.5,0.4,10.3,0.4,15.1c0,9.5,0.8,28.1,1.7,40.1c1.2,16.1,4.5,36.9,7,45.3l0.8,2.7h-27.6c-15.2,0-27.6-0.1-27.6-0.2c0-0.1,0.7-3,1.6-6.6c4.6-18.2,6.4-36.6,7.5-77.5l0.7-25.2h17.6h17.6L144.6,95.9z M167,210.7v2.5h-40.4H86.2v-2.5v-2.5h40.4H167V210.7L167,210.7z M182.3,224.5c1.5,1.5,1.6,2,1.6,5.4c0,3.4-0.2,3.9-1.6,5.4l-1.6,1.6H128H75.4l-1.6-1.6c-1.5-1.5-1.6-2-1.6-5.4c0-3.4,0.2-3.9,1.6-5.4l1.6-1.6H128h52.6L182.3,224.5z"/></g></g></g>
</svg>